<?xml version="1.0" encoding="utf-8"?>
<!-- Generator: Adobe Illustrator 19.2.1, SVG Export Plug-In . SVG Version: 6.00 Build 0)  -->
<svg version="1.1" id="Layer_1" xmlns="http://www.w3.org/2000/svg" xmlns:xlink="http://www.w3.org/1999/xlink" x="0px" y="0px"
	 viewBox="15 22 188 50" enable-background="new 0 0 221 90.5" xml:space="preserve">
<g>
	<path fill="#507BBE" d="M39.3,22.6L19.1,46.7l20.2,24.1h-3.8L15.2,46.7l20.2-24.1H39.3z"/>
	<path fill="#403F6B" d="M54.1,42.5h-2.6v9.7c0,1.2,0.6,1.7,1.9,1.7v4h-1.8c-3.2,0-4.7-2.4-4.7-5.3V42.5h-2.3v-4h2.3v-5.3h4.6v5.3
		h2.6V42.5z"/>
	<path fill="#403F6B" d="M73.5,49.3H61.8c0.2,2.6,1.5,4.6,4.3,4.6c1.8,0,3.2-0.8,4.2-1.9l3,2.8c-2.1,2.1-4.3,3.4-7.2,3.4
		c-6,0-9.2-4.4-9.2-10c0-5.6,3-10.1,8.9-10.1c4.9,0,7.7,4,7.7,9.5V49.3z M69.2,46.3c-0.2-2.1-1.1-3.8-3.5-3.8
		c-2.4,0-3.5,1.5-3.8,3.8H69.2z"/>
	<path fill="#403F6B" d="M93.3,57.9h-4.7V47.1c0-2.4-0.6-4.3-3.4-4.3c-1.9,0-3.2,1.5-3.2,3.2v12h-4.7V38.5h3.9l0.2,1.2
		c1-1,2.7-1.6,4.1-1.6c5.7,0,8,3.5,8,8.9V57.9z"/>
	<path fill="#403F6B" d="M109,49.1H97.5v-3.7H109V49.1z"/>
	<path fill="#403F6B" d="M122.6,34.2c-2.4,0-3.4,0.7-3.4,3.3v1h3v4h-3v15.5h-4.6V42.5H113v-4h1.7v-2.3c0-5.2,3.4-5.8,8-5.9V34.2z"/>
	<path fill="#403F6B" d="M132.3,58.3c-6.2,0-8.7-4.3-8.7-10.1s2.4-10.1,8.7-10.1c6.2,0,8.7,4.3,8.7,10.1S138.6,58.3,132.3,58.3z
		 M132.3,42.7c-3.4,0-3.9,2.8-3.9,5.5c0,2.8,0.5,5.5,3.9,5.5c3.4,0,3.9-2.7,3.9-5.5C136.2,45.5,135.7,42.7,132.3,42.7z"/>
	<path fill="#403F6B" d="M160.4,57.9h-3.9l-0.2-1.1c-1.2,1-2.6,1.5-3.9,1.5c-5.5,0-8.1-3.2-8.1-8.5V38.5h4.7v11
		c0,2.4,0.6,4.2,3.5,4.2c1.7,0,3.2-1.2,3.2-3V38.5h4.7V57.9z"/>
	<path fill="#403F6B" d="M175.5,43.1c-0.8-0.3-1.5-0.6-2.3-0.6c-2,0-3.3,1.3-3.3,3.1v12.3h-4.7V38.5h3.8l0.2,1.2
		c0.2-0.4,1.9-1.7,4-1.7c1.5,0,2.8,0.5,4.1,1.4L175.5,43.1z"/>
	<path fill="#507BBE" d="M202.9,46.7l-20.2,24.1h-3.8l20.2-24.1l-20.2-24.1h3.8L202.9,46.7z"/>
</g>
</svg>
